<svg width="82" height="63" viewBox="0 0 82 63" fill="none" xmlns="http://www.w3.org/2000/svg">
<path d="M23.3271 2.11259C17.3186 3.73974 13.148 6.21585 8.62395 11.0266C4.45335 15.4128 1.7672 20.5772 0.706882 26.3077C0.353441 28.3593 0 37.344 0 46.1872V62.388H15.5514H31.1028V47.1777V31.9673H20.853H10.6032V29.9864C10.6032 21.6384 18.5203 13.1489 27.6391 11.5925L30.7493 11.0266V6.1451C30.7493 0.273197 30.5373 0.20245 23.3271 2.11259Z" fill="black"/>
<path d="M57.2591 1.87895C69.983 4.63579 79.5966 15.0269 81.2931 27.8922C81.6466 30.7197 82 39.6264 82 47.6849V62.388H66.4486H50.8972V47.1901V31.9921H61.147H71.3968V30.0128C71.3968 26.9026 69.1348 21.4596 66.5193 18.42C63.6918 15.1683 56.6936 11.4925 53.1592 11.4925H50.8972V6.19093C50.8972 0.182434 50.6145 0.394501 57.2591 1.87895Z" fill="black"/>
<rect x="20" y="32" width="12" height="30.5" fill="#F56325"/>
<path d="M50 32H62V62.5H50V32Z" fill="#F56325"/>
</svg>
